<?xml version="1.0" standalone="no"?>
<!DOCTYPE svg PUBLIC "-//W3C//DTD SVG 20010904//EN"
 "http://www.w3.org/TR/2001/REC-SVG-20010904/DTD/svg10.dtd">
<svg version="1.0" xmlns="http://www.w3.org/2000/svg"
 width="700.000000pt" height="700.000000pt" viewBox="0 0 700.000000 700.000000"
 preserveAspectRatio="xMidYMid meet">
<metadata>
Created by potrace 1.14, written by Peter Selinger 2001-2017
</metadata>
<g transform="translate(0.000000,700.000000) scale(0.100000,-0.100000)"
fill="#000000" stroke="none">
<path d="M1275 6445 c-33 -7 -72 -16 -86 -19 -61 -14 -173 -67 -252 -119 -177
-118 -317 -313 -366 -512 -7 -27 -16 -59 -19 -70 -4 -11 -8 -1003 -9 -2205 -3
-2118 -2 -2188 16 -2270 18 -80 60 -194 92 -250 34 -60 125 -173 177 -221 124
-114 261 -184 427 -220 87 -18 155 -19 2275 -16 l2185 2 76 22 c164 48 296
126 411 243 122 124 196 262 245 455 13 50 15 4327 3 4424 -47 362 -315 656
-679 746 l-96 24 -2170 -1 c-1743 0 -2182 -3 -2230 -13z m1041 -1340 c1 -418
4 -769 7 -780 47 -181 239 -278 403 -205 24 10 200 106 391 212 191 106 357
197 369 201 17 6 98 -35 400 -204 232 -130 400 -218 433 -226 120 -32 247 20
316 127 49 78 48 66 49 875 l1 760 480 0 c471 -1 481 -1 525 -22 64 -31 118
-86 148 -151 l27 -57 2 -2115 2 -2115 -21 -67 c-24 -78 -78 -141 -156 -180
l-47 -23 -2120 -2 c-2317 -2 -2172 -6 -2265 56 -49 32 -98 101 -117 163 -8 29
-11 575 -10 2166 l2 2127 24 48 c40 81 122 148 206 167 17 4 237 7 490 6 l460
-1 1 -760z m1774 279 c0 -266 -2 -484 -5 -484 -3 0 -43 21 -88 47 -45 25 -107
60 -137 76 -30 16 -64 35 -75 42 -11 6 -60 34 -110 61 -88 48 -92 49 -175 49
-98 0 -90 4 -394 -169 -102 -58 -188 -106 -191 -106 -3 0 -5 218 -5 484 l0
484 590 0 590 1 0 -485z"/>
<path d="M1932 3486 c-187 -60 -264 -283 -154 -448 37 -57 115 -110 178 -123
42 -8 685 -7 720 1 186 45 284 250 200 417 -33 64 -73 104 -139 139 -41 23
-50 23 -402 25 -282 2 -369 -1 -403 -11z"/>
<path d="M1957 2308 c-58 -12 -110 -43 -151 -89 -137 -151 -93 -376 92 -466
l57 -28 925 0 c509 -1 944 3 968 7 137 24 231 132 239 273 7 123 -52 224 -163
280 l-59 29 -935 1 c-515 0 -953 -3 -973 -7z"/>
</g>
</svg>
